<?xml version="1.0" encoding="UTF-8" standalone="no"?>
<!DOCTYPE svg PUBLIC "-//W3C//DTD SVG 1.1//EN"
 "http://www.w3.org/Graphics/SVG/1.1/DTD/svg11.dtd">
<!-- Generated by graphviz version 2.43.0 (0)
 -->
<!-- Title: %3 Pages: 1 -->
<svg width="156pt" height="322pt"
 viewBox="0.00 0.00 156.00 321.91" xmlns="http://www.w3.org/2000/svg" xmlns:xlink="http://www.w3.org/1999/xlink">
<g id="graph0" class="graph" transform="scale(1 1) rotate(0) translate(4 317.91)">
<title>%3</title>
<polygon fill="white" stroke="transparent" points="-4,4 -4,-317.91 152,-317.91 152,4 -4,4"/>
<g id="clust1" class="cluster">
<title>cluster1</title>
<path fill="none" stroke="black" d="M20,-8C20,-8 128,-8 128,-8 134,-8 140,-14 140,-20 140,-20 140,-198.95 140,-198.95 140,-204.95 134,-210.95 128,-210.95 128,-210.95 20,-210.95 20,-210.95 14,-210.95 8,-204.95 8,-198.95 8,-198.95 8,-20 8,-20 8,-14 14,-8 20,-8"/>
<text text-anchor="middle" x="127" y="-15.8" font-family="Times,serif" font-size="14.00">1</text>
</g>
<!-- result -->
<g id="node1" class="node">
<title>result</title>
<ellipse fill="lightgrey" stroke="black" cx="74" cy="-165.48" rx="57.97" ry="37.45"/>
<text text-anchor="middle" x="74" y="-176.78" font-family="Times,serif" font-size="14.00">result</text>
<text text-anchor="middle" x="74" y="-161.78" font-family="Times,serif" font-size="14.00">~</text>
<text text-anchor="middle" x="74" y="-146.78" font-family="Times,serif" font-size="14.00">Bernoulli</text>
</g>
<!-- result_obs -->
<g id="node2" class="node">
<title>result_obs</title>
<path fill="lightgrey" stroke="black" d="M107,-92C107,-92 41,-92 41,-92 35,-92 29,-86 29,-80 29,-80 29,-51 29,-51 29,-45 35,-39 41,-39 41,-39 107,-39 107,-39 113,-39 119,-45 119,-51 119,-51 119,-80 119,-80 119,-86 113,-92 107,-92"/>
<text text-anchor="middle" x="74" y="-76.8" font-family="Times,serif" font-size="14.00">result_obs</text>
<text text-anchor="middle" x="74" y="-61.8" font-family="Times,serif" font-size="14.00">~</text>
<text text-anchor="middle" x="74" y="-46.8" font-family="Times,serif" font-size="14.00">Data</text>
</g>
<!-- result&#45;&gt;result_obs -->
<g id="edge1" class="edge">
<title>result&#45;&gt;result_obs</title>
<path fill="none" stroke="black" d="M74,-127.99C74,-119.58 74,-110.63 74,-102.25"/>
<polygon fill="black" stroke="black" points="77.5,-102.01 74,-92.01 70.5,-102.01 77.5,-102.01"/>
</g>
<!-- p_heads -->
<g id="node3" class="node">
<title>p_heads</title>
<ellipse fill="none" stroke="black" cx="74" cy="-276.43" rx="52.15" ry="37.45"/>
<text text-anchor="middle" x="74" y="-287.73" font-family="Times,serif" font-size="14.00">p_heads</text>
<text text-anchor="middle" x="74" y="-272.73" font-family="Times,serif" font-size="14.00">~</text>
<text text-anchor="middle" x="74" y="-257.73" font-family="Times,serif" font-size="14.00">Beta</text>
</g>
<!-- p_heads&#45;&gt;result -->
<g id="edge2" class="edge">
<title>p_heads&#45;&gt;result</title>
<path fill="none" stroke="black" d="M74,-238.85C74,-230.67 74,-221.89 74,-213.37"/>
<polygon fill="black" stroke="black" points="77.5,-213.15 74,-203.15 70.5,-213.15 77.5,-213.15"/>
</g>
</g>
</svg>
