<?xml version="1.0" encoding="UTF-8" standalone="no"?>
<!DOCTYPE svg PUBLIC "-//W3C//DTD SVG 1.1//EN"
 "http://www.w3.org/Graphics/SVG/1.1/DTD/svg11.dtd">
<!-- Generated by graphviz version 2.43.0 (0)
 -->
<!-- Title: %3 Pages: 1 -->
<svg width="334pt" height="700pt"
 viewBox="0.00 0.00 334.15 699.86" xmlns="http://www.w3.org/2000/svg" xmlns:xlink="http://www.w3.org/1999/xlink">
<g id="graph0" class="graph" transform="scale(1 1) rotate(0) translate(4 695.86)">
<title>%3</title>
<polygon fill="white" stroke="transparent" points="-4,4 -4,-695.86 330.15,-695.86 330.15,4 -4,4"/>
<g id="clust1" class="cluster">
<title>clustert (50)</title>
<path fill="none" stroke="black" d="M67.81,-8C67.81,-8 225.81,-8 225.81,-8 231.81,-8 237.81,-14 237.81,-20 237.81,-20 237.81,-376.95 237.81,-376.95 237.81,-382.95 231.81,-388.95 225.81,-388.95 225.81,-388.95 67.81,-388.95 67.81,-388.95 61.81,-388.95 55.81,-382.95 55.81,-376.95 55.81,-376.95 55.81,-20 55.81,-20 55.81,-14 61.81,-8 67.81,-8"/>
<text text-anchor="middle" x="209.81" y="-15.8" font-family="Times,serif" font-size="14.00">t (50)</text>
</g>
<!-- p_sheisty -->
<g id="node1" class="node">
<title>p_sheisty</title>
<ellipse fill="none" stroke="black" cx="60.81" cy="-654.38" rx="58.88" ry="37.45"/>
<text text-anchor="middle" x="60.81" y="-665.68" font-family="Times,serif" font-size="14.00">p_sheisty</text>
<text text-anchor="middle" x="60.81" y="-650.68" font-family="Times,serif" font-size="14.00">~</text>
<text text-anchor="middle" x="60.81" y="-635.68" font-family="Times,serif" font-size="14.00">Uniform</text>
</g>
<!-- is_sheisty -->
<g id="node2" class="node">
<title>is_sheisty</title>
<ellipse fill="none" stroke="black" cx="60.81" cy="-543.43" rx="60.62" ry="37.45"/>
<text text-anchor="middle" x="60.81" y="-554.73" font-family="Times,serif" font-size="14.00">is_sheisty</text>
<text text-anchor="middle" x="60.81" y="-539.73" font-family="Times,serif" font-size="14.00">~</text>
<text text-anchor="middle" x="60.81" y="-524.73" font-family="Times,serif" font-size="14.00">Bernoulli</text>
</g>
<!-- p_sheisty&#45;&gt;is_sheisty -->
<g id="edge1" class="edge">
<title>p_sheisty&#45;&gt;is_sheisty</title>
<path fill="none" stroke="black" d="M60.81,-616.8C60.81,-608.63 60.81,-599.85 60.81,-591.32"/>
<polygon fill="black" stroke="black" points="64.31,-591.1 60.81,-581.1 57.31,-591.1 64.31,-591.1"/>
</g>
<!-- p_heads -->
<g id="node3" class="node">
<title>p_heads</title>
<polygon fill="none" stroke="black" points="203.81,-469.95 89.81,-469.95 89.81,-416.95 203.81,-416.95 203.81,-469.95"/>
<text text-anchor="middle" x="146.81" y="-454.75" font-family="Times,serif" font-size="14.00">p_heads</text>
<text text-anchor="middle" x="146.81" y="-439.75" font-family="Times,serif" font-size="14.00">~</text>
<text text-anchor="middle" x="146.81" y="-424.75" font-family="Times,serif" font-size="14.00">Deterministic</text>
</g>
<!-- is_sheisty&#45;&gt;p_heads -->
<g id="edge3" class="edge">
<title>is_sheisty&#45;&gt;p_heads</title>
<path fill="none" stroke="black" d="M89.21,-510.08C98.25,-499.77 108.28,-488.35 117.39,-477.97"/>
<polygon fill="black" stroke="black" points="120.19,-480.09 124.16,-470.26 114.93,-475.47 120.19,-480.09"/>
</g>
<!-- num_heads -->
<g id="node5" class="node">
<title>num_heads</title>
<ellipse fill="none" stroke="black" cx="146.81" cy="-343.48" rx="68.68" ry="37.45"/>
<text text-anchor="middle" x="146.81" y="-354.78" font-family="Times,serif" font-size="14.00">num_heads</text>
<text text-anchor="middle" x="146.81" y="-339.78" font-family="Times,serif" font-size="14.00">~</text>
<text text-anchor="middle" x="146.81" y="-324.78" font-family="Times,serif" font-size="14.00">Binomial</text>
</g>
<!-- p_heads&#45;&gt;num_heads -->
<g id="edge4" class="edge">
<title>p_heads&#45;&gt;num_heads</title>
<path fill="none" stroke="black" d="M146.81,-416.71C146.81,-408.89 146.81,-400.03 146.81,-391.27"/>
<polygon fill="black" stroke="black" points="150.31,-391.1 146.81,-381.1 143.31,-391.1 150.31,-391.1"/>
</g>
<!-- sheisty_p_heads -->
<g id="node4" class="node">
<title>sheisty_p_heads</title>
<ellipse fill="none" stroke="black" cx="232.81" cy="-543.43" rx="93.18" ry="37.45"/>
<text text-anchor="middle" x="232.81" y="-554.73" font-family="Times,serif" font-size="14.00">sheisty_p_heads</text>
<text text-anchor="middle" x="232.81" y="-539.73" font-family="Times,serif" font-size="14.00">~</text>
<text text-anchor="middle" x="232.81" y="-524.73" font-family="Times,serif" font-size="14.00">Uniform</text>
</g>
<!-- sheisty_p_heads&#45;&gt;p_heads -->
<g id="edge2" class="edge">
<title>sheisty_p_heads&#45;&gt;p_heads</title>
<path fill="none" stroke="black" d="M202.49,-507.89C193.87,-498.06 184.5,-487.39 175.94,-477.64"/>
<polygon fill="black" stroke="black" points="178.52,-475.27 169.29,-470.06 173.26,-479.89 178.52,-475.27"/>
</g>
<!-- money_change -->
<g id="node8" class="node">
<title>money_change</title>
<polygon fill="none" stroke="black" points="207.81,-270 85.81,-270 85.81,-217 207.81,-217 207.81,-270"/>
<text text-anchor="middle" x="146.81" y="-254.8" font-family="Times,serif" font-size="14.00">money_change</text>
<text text-anchor="middle" x="146.81" y="-239.8" font-family="Times,serif" font-size="14.00">~</text>
<text text-anchor="middle" x="146.81" y="-224.8" font-family="Times,serif" font-size="14.00">Deterministic</text>
</g>
<!-- num_heads&#45;&gt;money_change -->
<g id="edge5" class="edge">
<title>num_heads&#45;&gt;money_change</title>
<path fill="none" stroke="black" d="M146.81,-305.99C146.81,-297.58 146.81,-288.63 146.81,-280.25"/>
<polygon fill="black" stroke="black" points="150.31,-280.01 146.81,-270.01 143.31,-280.01 150.31,-280.01"/>
</g>
<!-- money_w_bonus -->
<g id="node6" class="node">
<title>money_w_bonus</title>
<polygon fill="none" stroke="black" points="212.81,-92 80.81,-92 80.81,-39 212.81,-39 212.81,-92"/>
<text text-anchor="middle" x="146.81" y="-76.8" font-family="Times,serif" font-size="14.00">money_w_bonus</text>
<text text-anchor="middle" x="146.81" y="-61.8" font-family="Times,serif" font-size="14.00">~</text>
<text text-anchor="middle" x="146.81" y="-46.8" font-family="Times,serif" font-size="14.00">Deterministic</text>
</g>
<!-- money_at_round_end -->
<g id="node7" class="node">
<title>money_at_round_end</title>
<polygon fill="none" stroke="black" points="230.31,-181 63.31,-181 63.31,-128 230.31,-128 230.31,-181"/>
<text text-anchor="middle" x="146.81" y="-165.8" font-family="Times,serif" font-size="14.00">money_at_round_end</text>
<text text-anchor="middle" x="146.81" y="-150.8" font-family="Times,serif" font-size="14.00">~</text>
<text text-anchor="middle" x="146.81" y="-135.8" font-family="Times,serif" font-size="14.00">Deterministic</text>
</g>
<!-- money_at_round_end&#45;&gt;money_w_bonus -->
<g id="edge7" class="edge">
<title>money_at_round_end&#45;&gt;money_w_bonus</title>
<path fill="none" stroke="black" d="M146.81,-127.87C146.81,-119.89 146.81,-110.93 146.81,-102.38"/>
<polygon fill="black" stroke="black" points="150.31,-102.25 146.81,-92.25 143.31,-102.25 150.31,-102.25"/>
</g>
<!-- money_change&#45;&gt;money_at_round_end -->
<g id="edge6" class="edge">
<title>money_change&#45;&gt;money_at_round_end</title>
<path fill="none" stroke="black" d="M146.81,-216.87C146.81,-208.89 146.81,-199.93 146.81,-191.38"/>
<polygon fill="black" stroke="black" points="150.31,-191.25 146.81,-181.25 143.31,-191.25 150.31,-191.25"/>
</g>
</g>
</svg>
