<?xml version="1.0" encoding="UTF-8" standalone="no"?>
<!DOCTYPE svg PUBLIC "-//W3C//DTD SVG 1.1//EN"
 "http://www.w3.org/Graphics/SVG/1.1/DTD/svg11.dtd">
<!-- Generated by graphviz version 2.43.0 (0)
 -->
<!-- Title: %3 Pages: 1 -->
<svg width="156pt" height="286pt"
 viewBox="0.00 0.00 156.00 285.91" xmlns="http://www.w3.org/2000/svg" xmlns:xlink="http://www.w3.org/1999/xlink">
<g id="graph0" class="graph" transform="scale(1 1) rotate(0) translate(4 281.91)">
<title>%3</title>
<polygon fill="white" stroke="transparent" points="-4,4 -4,-281.91 152,-281.91 152,4 -4,4"/>
<g id="clust1" class="cluster">
<title>clustergame_num (82)</title>
<path fill="none" stroke="black" d="M20,-61C20,-61 128,-61 128,-61 134,-61 140,-67 140,-73 140,-73 140,-162.95 140,-162.95 140,-168.95 134,-174.95 128,-174.95 128,-174.95 20,-174.95 20,-174.95 14,-174.95 8,-168.95 8,-162.95 8,-162.95 8,-73 8,-73 8,-67 14,-61 20,-61"/>
<text text-anchor="middle" x="76.5" y="-68.8" font-family="Times,serif" font-size="14.00">game_num (82)</text>
</g>
<!-- num_wins -->
<g id="node1" class="node">
<title>num_wins</title>
<polygon fill="none" stroke="black" points="131,-53 17,-53 17,0 131,0 131,-53"/>
<text text-anchor="middle" x="74" y="-37.8" font-family="Times,serif" font-size="14.00">num_wins</text>
<text text-anchor="middle" x="74" y="-22.8" font-family="Times,serif" font-size="14.00">~</text>
<text text-anchor="middle" x="74" y="-7.8" font-family="Times,serif" font-size="14.00">Deterministic</text>
</g>
<!-- p_win -->
<g id="node2" class="node">
<title>p_win</title>
<ellipse fill="none" stroke="black" cx="74" cy="-240.43" rx="53.98" ry="37.45"/>
<text text-anchor="middle" x="74" y="-251.73" font-family="Times,serif" font-size="14.00">p_win</text>
<text text-anchor="middle" x="74" y="-236.73" font-family="Times,serif" font-size="14.00">~</text>
<text text-anchor="middle" x="74" y="-221.73" font-family="Times,serif" font-size="14.00">Uniform</text>
</g>
<!-- win -->
<g id="node3" class="node">
<title>win</title>
<ellipse fill="none" stroke="black" cx="74" cy="-129.48" rx="57.97" ry="37.45"/>
<text text-anchor="middle" x="74" y="-140.78" font-family="Times,serif" font-size="14.00">win</text>
<text text-anchor="middle" x="74" y="-125.78" font-family="Times,serif" font-size="14.00">~</text>
<text text-anchor="middle" x="74" y="-110.78" font-family="Times,serif" font-size="14.00">Bernoulli</text>
</g>
<!-- p_win&#45;&gt;win -->
<g id="edge1" class="edge">
<title>p_win&#45;&gt;win</title>
<path fill="none" stroke="black" d="M74,-202.85C74,-194.67 74,-185.89 74,-177.37"/>
<polygon fill="black" stroke="black" points="77.5,-177.15 74,-167.15 70.5,-177.15 77.5,-177.15"/>
</g>
<!-- win&#45;&gt;num_wins -->
<g id="edge2" class="edge">
<title>win&#45;&gt;num_wins</title>
<path fill="none" stroke="black" d="M74,-91.74C74,-82.48 74,-72.55 74,-63.34"/>
<polygon fill="black" stroke="black" points="77.5,-63.31 74,-53.31 70.5,-63.31 77.5,-63.31"/>
</g>
</g>
</svg>
