<?xml version="1.0" encoding="UTF-8" standalone="no"?>
<!DOCTYPE svg PUBLIC "-//W3C//DTD SVG 1.1//EN"
 "http://www.w3.org/Graphics/SVG/1.1/DTD/svg11.dtd">
<!-- Generated by graphviz version 2.43.0 (0)
 -->
<!-- Title: %3 Pages: 1 -->
<svg width="124pt" height="172pt"
 viewBox="0.00 0.00 123.97 171.95" xmlns="http://www.w3.org/2000/svg" xmlns:xlink="http://www.w3.org/1999/xlink">
<g id="graph0" class="graph" transform="scale(1 1) rotate(0) translate(4 167.95)">
<title>%3</title>
<polygon fill="white" stroke="transparent" points="-4,4 -4,-167.95 119.97,-167.95 119.97,4 -4,4"/>
<!-- D -->
<g id="node1" class="node">
<title>D</title>
<ellipse fill="none" stroke="black" cx="57.98" cy="-37.48" rx="57.97" ry="37.45"/>
<text text-anchor="middle" x="57.98" y="-48.78" font-family="Times,serif" font-size="14.00">D</text>
<text text-anchor="middle" x="57.98" y="-33.78" font-family="Times,serif" font-size="14.00">~</text>
<text text-anchor="middle" x="57.98" y="-18.78" font-family="Times,serif" font-size="14.00">Bernoulli</text>
</g>
<!-- BC -->
<g id="node2" class="node">
<title>BC</title>
<path fill="lightgrey" stroke="black" d="M72.98,-163.95C72.98,-163.95 42.98,-163.95 42.98,-163.95 36.98,-163.95 30.98,-157.95 30.98,-151.95 30.98,-151.95 30.98,-122.95 30.98,-122.95 30.98,-116.95 36.98,-110.95 42.98,-110.95 42.98,-110.95 72.98,-110.95 72.98,-110.95 78.98,-110.95 84.98,-116.95 84.98,-122.95 84.98,-122.95 84.98,-151.95 84.98,-151.95 84.98,-157.95 78.98,-163.95 72.98,-163.95"/>
<text text-anchor="middle" x="57.98" y="-148.75" font-family="Times,serif" font-size="14.00">BC</text>
<text text-anchor="middle" x="57.98" y="-133.75" font-family="Times,serif" font-size="14.00">~</text>
<text text-anchor="middle" x="57.98" y="-118.75" font-family="Times,serif" font-size="14.00">Data</text>
</g>
<!-- BC&#45;&gt;D -->
<g id="edge1" class="edge">
<title>BC&#45;&gt;D</title>
<path fill="none" stroke="black" d="M57.98,-110.71C57.98,-102.89 57.98,-94.03 57.98,-85.27"/>
<polygon fill="black" stroke="black" points="61.48,-85.1 57.98,-75.1 54.48,-85.1 61.48,-85.1"/>
</g>
</g>
</svg>
